<?xml version="1.0" encoding="utf-8"?>
<!-- Generator: Adobe Illustrator 19.1.0, SVG Export Plug-In . SVG Version: 6.00 Build 0)  -->
<svg version="1.1" id="Layer_1" xmlns="http://www.w3.org/2000/svg" xmlns:xlink="http://www.w3.org/1999/xlink" x="0px" y="0px"
	 viewBox="-684.5 284.8 710.6 641.4" style="enable-background:new -684.5 284.8 710.6 641.4;" xml:space="preserve">
<style type="text/css">
	.st0{fill:#1E90FF;}
</style>
<path class="st0" d="M-416.2,921.6l-5.1-4.9l15.2-16.6c15.4-16.8,34.7-33.1,51.4-43.6c11.4-7.1,10.9-6.6,8.4-8.2
	c-3.5-2.3-22.7-8.5-30.8-10l-7.5-1.4l-6.9,6.4c-14.5,13.4-27.5,17.3-58.4,17.3c-28.8,0-50.6-4.2-80.4-15.4
	c-12.6-4.8-12.7-4.8-8.5-6.6c5.6-2.4,33.9-8.9,51-11.8c18.7-3.2,69.3-4.4,88.1-2.1c20.4,2.5,38.6,6.6,55.8,12.6l14.7,5.1l13.8-5
	c16-5.8,35.8-10.3,56.5-12.8c18.8-2.2,69.1-1,88.2,2.2c17.4,2.9,45.1,9.3,50.8,11.7c4.2,1.8,4.2,1.8-8.5,6.6
	c-29.6,11.2-51.4,15.4-80.4,15.4c-30.7,0-42.6-3.5-58.6-17.2l-7.8-6.7l-7,1.5c-8.8,1.8-27.5,8.2-30.3,10.2c-1.4,1-1.6,1.8-0.6,2.2
	c3.9,1.7,30.4,20.8,38.9,28.1c11.9,10.1,35,35.2,35,38c0,3-9.2,9.9-12.3,9.3c-1.4-0.3-7.6-6.3-13.6-13.4c-16.2-19-40.8-40.9-59-52.4
	l-5.3-3.4l-7.4,4.7c-19,12.2-46.7,37.4-61,55.7C-405.9,928.1-408.8,928.7-416.2,921.6z M-539.4,820.4c-13.2-1.6-20.5-3.9-32.5-10.4
	c-19.5-10.6-32.3-23.6-49.6-50.6c-9.1-14.2-9.3-14.8-6.1-15.2c5.4-0.7,27.3,7.7,47.6,18.3c34,17.7,60,35.4,71.7,48.7l6.1,6.9l-4.9,1
	C-515.9,820.9-530.1,821.5-539.4,820.4z M-136.7,821c-2.3-0.3-7.6-0.9-11.7-1.3l-7.4-0.8l2.4-4.3c3.3-5.8,16.7-17,34.4-28.7
	c16.9-11.1,60.4-34.2,71.6-37.9c10.1-3.4,18.5-4.7,18.5-3c0,2.4-16.3,27.3-24.2,36.8c-15.2,18.4-38,33.5-56.2,37
	C-118.9,820.6-131.2,821.6-136.7,821z M-468.2,812.9c-20.8-3.1-39-18-49.4-40.3c-8.2-17.6-16.4-52.3-12.4-52.3
	c0.8,0,5.8,3.4,11.1,7.6c31.2,24.5,69.5,63.1,75.8,76.3l3.8,8.1l-3.2,1C-446.8,814.6-458,814.5-468.2,812.9z M-216.1,813.5
	c-3.8-0.8-3.3-3.6,2.2-12.9c9.9-16.6,82.1-83.8,85.8-79.8c1.4,1.4-2.4,21.7-6.6,35.7c-7.5,24.5-19.9,41.2-37.3,50.1
	C-184.6,813-203.6,816-216.1,813.5z M-367.4,787.4c-98.5-16.7-176.4-92.7-198.7-193.7c-4.8-21.6-6.2-39.8-5.3-66.1
	c1.4-39.8,7.9-66.7,25-102.5c5.4-11.3,14.1-26.9,19.3-34.6c11.8-17.2,36.6-43.6,52.6-55.9c57.7-44.2,128.8-59.8,198.8-43.4
	c21.3,5,32.3,9.1,54.4,20.6c66.6,34.5,113.1,97.6,129.3,175.9c2.8,13.6,3.2,19.6,3.2,50.1c0,38-1.7,50.4-10.6,78.8
	c-5.8,18.6-22.1,51.9-33.4,68.5c-12.3,18-38.3,45.1-55.4,57.8c-26.9,19.9-60.2,35.2-92.4,42.5C-298.8,789.3-348.5,790.6-367.4,787.4
	z M-416,733.2c5.4-2.1,16.6-6.4,24.7-9.7c20.3-8.1,37.3-13.1,50.9-14.9c13.8-1.8,17.8-3.7,22-10.2c3.8-5.9,4.1-12.2,1-21.7
	c-1.2-3.8-3.1-14.6-4.1-24.1s-2.9-19.6-4.2-22.6c-2.6-5.8-10.7-14.1-24.5-25c-11.9-9.5-14.7-14.4-14-24.3c0.4-6.1,1.4-8.7,4.6-12.2
	c3.1-3.4,4.3-6.3,4.8-12.1c0.7-6.8,1.1-7.7,4.3-8.2c5.7-0.8,7.1-3,7.1-11.5c0-7.4,0.2-7.9,3.4-7.9c5.4,0,7.4-3.7,5.2-9.3
	c-5-12.7-3.3-17.2,6.8-17.2c8.9,0,24.1-3.6,30.7-7.1c3-1.6,12.1-9.8,20.3-18.2c21.5-22.1,36.3-29.1,61.4-29.2
	c14.8,0,25.3,2.5,37.7,9c32.6,17.1,55.2,44.9,63.2,77.5c3.8,15.4,3.7,41.3-0.1,57.2c-5,20.5-11.3,31.9-26.6,47.7
	c-21.5,22.1-38.9,30.9-62.8,31.6c-15.7,0.5-16.9,1.6-16,15.5c1,15.1,9.7,29.3,24.7,40c7.4,5.3,7.1,5.5,25.4-12.8
	c51.9-51.6,78.7-123.9,72.4-196c-3-34.6-13.4-69.7-29.5-99.6c-3.4-6.3-6.7-11.8-7.3-12.2c-0.6-0.4-4.3,1.3-8.1,3.8
	c-3.8,2.5-12.6,7.9-19.6,11.9s-12.9,7.5-13.1,7.7c-0.2,0.2,1.2,4,3.1,8.6l3.5,8.2l-5.9-2.7c-3.3-1.5-6.9-4.4-8.1-6.4
	c-1.7-2.8-2.7-3.3-4.5-2.3c-1.6,0.9-5.7,0.7-11.9-0.6c-7.9-1.7-8.9-2.2-5.8-3c2.1-0.5,6.7-2.3,10.3-3.9l6.6-2.9l-4.6-8.5
	c-5.8-10.8-20.6-33.5-23.3-35.8c-1.7-1.5-4.4-0.7-14.4,4.2c-6.8,3.3-16.1,7.5-20.8,9.3c-4.7,1.8-8.7,3.4-9,3.7
	c-0.3,0.2,2.5,9.8,6.1,21.2c3.7,11.4,6.4,21.1,6,21.4c-0.3,0.3-2.5,1-4.7,1.5l-4.1,0.9l-6.5-20.4c-7.5-23.5-4.5-21.7-28.8-17.7
	c-7.8,1.3-18.4,2.8-23.6,3.3l-9.5,0.9v24.2v24.2l10.9-0.9c6-0.5,16.8-1.5,23.9-2.3c7.1-0.8,14.4-1.4,16.1-1.4h3.1l-3.4,3.8
	c-5.6,6.3-8.2,7-29.5,8.6l-20.5,1.5l-0.4,8.5l-0.4,8.5h-4.6h-4.9v-37.4V408l-7.4-0.9c-4.1-0.5-9.4-0.9-11.9-0.9c-3.6,0-5-1-7.3-5.1
	l-2.9-5.1l14.8,0.9l14.8,0.9v-20.9c0-15.5-0.5-21-1.8-21.4c-1-0.3-6.2-1.3-11.6-2.2s-11.6-2.1-13.6-2.5c-3.5-0.8-4.2,0-10.9,12.9
	c-3.9,7.6-7.4,14.4-7.6,15.1c-0.5,1.4-7.9-3.5-8-5.2c0-0.5,3.1-6.8,6.9-14c5-9.4,6.5-13.4,5.3-14.2c-0.9-0.6-6-3.8-11.3-7.1l-9.6-6
	l-13.4,11.7c-13.2,11.2-13.3,11.2-19.2,10l-6-1.2l15.1-13.2c8.3-7.3,14.9-13.6,14.7-14.2c-0.2-0.5-2.8-3.7-5.8-7.1l-5.4-6.2
	l-7.3,3.2c-27.3,12-59.9,37-80.3,61.4c-31.3,37.5-52.7,87.6-56.7,133c-0.5,5.3-1.1,12.1-1.5,15.1c-0.4,3.2-0.1,5.5,0.7,5.5
	s6-3.7,11.6-8.2c5.6-4.5,14.6-10.9,20.1-14.2c21.3-12.8,23.1-17.1,17.7-43.9c-3.1-15.7-3.6-32.8-1.2-44.5
	c4.8-23.7,21.8-43.1,45.1-51.3c7.6-2.7,11.4-3.1,23.8-2.6c12.3,0.5,16.6,1.4,25.6,5.1c21.9,9.1,42.9,27.1,52,44.7
	c4.6,8.9,4.9,10.5,4.9,22.8c0,14.8-2.6,22.4-12.7,37.7c-5.2,7.9-5.3,8.1-4.4,18.6l0.9,10.6l-4.3,2.3c-3.3,1.8-4.3,3.3-4.3,6.6
	c0,2.4-0.9,4.8-2,5.5c-1.1,0.6-2.2,2.8-2.5,4.9c-0.3,2.5-1.5,3.8-3.7,4.2c-1.7,0.3-4.8,2.7-6.8,5.4c-6.5,8.8-14,9.9-34.1,4.9
	c-12.4-3.1-13.3-3.1-17.9-0.8c-6.7,3.3-7.2,7-3.8,25c3.6,18.7,8.7,56.5,8.7,64.4c0,14.5,6.4,18.6,33.9,21.5l19.7,2.1l8.1-5.9
	c7-5.1,9-5.9,14.5-5.5c5.7,0.4,6.3,0.8,5.9,3.8c-0.4,3.2-0.1,3.3,7.1,2.4c6-0.7,7.9-0.4,9.4,1.4c2.9,3.6,1.3,16.9-3.2,26.4
	c-6.4,13.6-16.2,17.8-32.4,13.5c-8.5-2.2-10.3-2.2-20.3-0.2c-23,4.7-32.6,5.9-45.7,5.9c-11.7,0-14.6-0.5-20.9-3.8l-7.3-3.8l-2.2,3.5
	c-3.5,5.6-6,14-6,20.7c-0.1,6,0.3,6.4,12,16.2c6.6,5.5,13.5,10.5,15.2,11.1c1.7,0.6,10.4,0.8,19.3,0.6
	C-428.9,737.1-424,736.3-416,733.2z M-148.3,401.7l8.2-5.5l-6.4-8.4c-3.5-4.6-12.4-14.7-19.8-22.4c-10.1-10.5-13.9-13.6-15.4-12.5
	c-11.2,8.5-23.1,17.4-24.7,18.3c-1.5,0.9,0.3,4.5,7.2,15c5,7.6,11.5,18.3,14.4,23.8l5.3,10l11.5-6.4
	C-161.6,410.1-152.8,404.7-148.3,401.7z M-289.6,394c6.5-1.3,12.6-2.8,13.6-3.4c1.4-0.8-0.3-5.5-6.7-18.6
	c-10.5-21.4-10.8-21.8-15.4-20.5c-2,0.6-8.7,1.8-14.9,2.7l-11.3,1.7l-0.4,21.1l-0.4,21.1l11.8-1C-306.7,396.8-296.1,395.3-289.6,394
	z M-253.5,383.7c15.2-6,28.6-12.8,28.6-14.5c0-2.1-19.6-21.7-30-30.1l-7.9-6.4l-3.9,2.9c-2.2,1.6-6.8,4.4-10.3,6.2
	c-3.5,1.8-6.6,3.6-6.9,3.9c-0.8,0.8,18.7,41.5,19.9,41.7C-263.5,387.4-258.7,385.8-253.5,383.7z M-201.7,355.4
	c6.2-4.6,11.4-9.2,11.7-10.2c0.7-2.4-24.6-19.6-40-27.2l-12.3-6l-6.2,7.1l-6.2,7.1l4.6,3.8c10.1,8.2,26.3,23.8,29.9,28.8
	c2.1,2.9,4.6,5.2,5.5,5.2C-213.6,363.9-207.8,360.1-201.7,355.4z M-334.9,327.1c0-10.5-0.5-19.1-1.1-19.1s-2.7,2.2-4.5,4.8
	c-10.4,14.7-18.3,26.6-18.3,27.7c0,1,3.4,2,17.6,4.9C-334.7,346.6-334.9,347.1-334.9,327.1z M-307.7,343.1c3.7-0.8,6.7-2.2,6.7-3
	c0-1.9-13-21.5-19.1-28.7l-4.8-5.7l-0.1,20.4v20.3l5.3-0.9C-316.8,345-311.4,343.9-307.7,343.1z M-362.7,327.5
	c3.5-5.5,8.4-12.8,10.9-16.2s3.8-6.3,2.9-6.3c-4.8,0-38.6,20.1-37.4,22.2c0.9,1.4,14.8,10.1,16.3,10.1
	C-369.5,337.4-366.3,332.9-362.7,327.5z M-281.1,332.8c4.6-2.5,8.3-5.2,8.3-5.9c0-2.9-35.8-23.3-37.6-21.4c-0.4,0.4,3.5,7,8.7,14.5
	c5.2,7.6,9.8,14.6,10.1,15.6C-290.6,338-290.6,338-281.1,332.8z M-389.4,315.5c3.2-2.3,11-7,17.2-10.4c13.7-7.6,15.7-9.3,9.1-8.1
	c-11.4,2-26.7,5.6-35,8.3l-9,2.9l5.4,5.8c3,3.2,5.6,5.8,5.9,5.8C-395.6,319.7-392.7,317.8-389.4,315.5z M-255.9,312.8
	c2.5-3.3,2.7-4.2,0.9-5.2c-5.3-3.1-46-12.5-46-10.7c0,0.2,6.1,3.8,13.6,8s15.8,9.2,18.6,11.1C-263.3,320-260.9,319.4-255.9,312.8z
	 M-544.7,765.2c-11.5-8.1-22.3-20.6-28.3-32.9c-8.1-16.6-9.4-23-9.4-46.6c0-16.8,0.6-23.1,3.3-34.2c1.8-7.5,3.7-13.6,4.3-13.6
	c0.5,0,3,3.3,5.5,7.4c14,22.3,32.9,87.1,33,113c0,6-0.2,11.1-0.5,11.5C-537.2,770-540.7,768-544.7,765.2z M-122.4,764.6
	c-3.3-21.4,19.5-101,34.9-122.2l3.6-5l1.6,4.3c6.3,17.2,8.7,49,5.1,66.9c-3.7,18-10.8,31.3-24,44.9c-6.3,6.5-13.4,12.9-15.8,14.3
	l-4.4,2.6L-122.4,764.6z M-592.2,746.1c-14.8-6.8-24.8-13.8-37.2-26.3c-16.8-17-28.7-34.9-37.9-57.5c-4.8-11.7-9.7-30-8.4-31.4
	c1.4-1.5,19,12.5,31,24.5c28.1,28.2,56.4,67.4,64.8,89.5C-576.9,752.8-577.5,752.8-592.2,746.1z M-78.3,743.8
	c7.1-19.6,32.3-54.5,59.9-83.2C-1.4,643,15.4,629,17.3,631c1.5,1.6-6.7,27.7-12.4,39.6c-12.2,25.5-30.4,48.7-48.7,62.5
	c-8.7,6.5-26,15.5-33.3,17.3l-3.9,1L-78.3,743.8z M-606.5,681.2c-2.9-4.8-7-13.4-8.9-19.1c-3.1-9-3.6-12.7-3.5-28.7
	c0-16.8,0.4-19.6,4.6-32.4c4.3-13.1,14.6-34.1,19.8-40.3c2.2-2.6,2.4-2.4,4.2,3.7c6.6,22.3,1.4,101-7.9,119.9l-2.8,5.7L-606.5,681.2
	z M-60.8,682.6c-6.8-16.7-10.9-52.9-9.9-87.8c0.4-13.4,1.5-27,2.6-30.9l1.9-6.9l4,6.2c18.6,28.6,26.9,62.3,21.7,87.9
	c-2.3,11.3-9.6,29-14.5,35.2l-2.8,3.5L-60.8,682.6z M-641.7,643c-11.9-9.2-22.4-22.9-29.7-38.3c-9.2-19.7-12-33.6-12.9-63
	c-0.4-13.8-0.2-24.7,0.5-24.6c4.9,0.1,30.4,49.2,40.7,78.6c9.1,25.8,14.8,54,11,54C-632.7,649.6-637,646.6-641.7,643z M-27.4,643.9
	c0-7.6,5.5-29.9,11.9-48.1c11-31.2,36.8-80.3,40.8-77.7c2,1.3,0.1,43.9-2.5,56C18.3,595.6,9.1,615.3-3,629.4
	c-5,5.8-21.6,20.1-23.3,20.1C-26.9,649.6-27.4,647.1-27.4,643.9z M-631.5,601.6c-0.4-0.7-1.8-5.4-3-10.4
	c-2.8-11.5-2.9-31.2-0.1-42.5c4.7-19.2,17.8-41.7,33.2-57.4l8.7-8.8l-0.9,13.3c-1.6,24.5-11.1,57.4-24.9,86.2
	C-625.6,596.9-630.2,603.8-631.5,601.6z M-33.7,594.6c-15.8-25.6-31.9-77.9-31.7-102.7l0.1-9.3l10.9,12
	c12.6,13.9,22.9,30.9,28.1,46.3c6.1,18.1,6,43-0.1,58l-1.8,4.4L-33.7,594.6z M-13.2,541.6c-1.3-8-1.6-19.6-1-40.3
	c1-37.3,5.1-64.5,12.1-81.7l2.6-6.4l4.3,14c9.5,31,10.9,65.4,3.7,89.1c-2.9,9.5-10.7,25.1-15.8,31.5l-4,5L-13.2,541.6z
	 M-653.6,544.7C-668,524.4-674,496-670.7,464c1.6-15.9,7-39.6,10.5-46.7c1.9-3.9,2-3.8,5.6,8c7,23.2,10.8,53.7,10.8,87
	c0,19.2-2.2,38.7-4.3,38.7C-648.7,550.9-651.2,548.1-653.6,544.7z M-631.7,500c-2-11,2.1-30.3,9.6-45.4c7.1-14.5,20.8-29.3,38-41.2
	c6.8-4.7,12.7-8.3,13.1-7.9c1.5,1.5-8.4,26.5-16.5,41.7c-13.1,24.5-28.4,46.2-38.5,54.2l-4.7,3.7L-631.7,500z M-37,496.6
	c-16.2-17.2-38.6-56.6-46-81c-1.9-6.2-3.2-11.4-2.9-11.7c0.9-1,21.5,14.4,29.4,21.9c10.1,9.6,19.7,23.6,24.2,35
	c4.2,10.9,7.2,32.8,5.4,39.9l-1.3,5.1L-37,496.6z M-638.9,444.4c-1.7-11.6-0.1-27.3,3.9-37.5c6.1-15.7,12.5-25.2,28.3-42.2
	l15.2-16.3l-0.9,7.4c-1.4,11.8-7.5,34.4-12.6,46.9c-6.9,16.7-12.9,26.5-23.5,38.4l-9.4,10.5L-638.9,444.4z M-25.5,446.7
	c-16.3-14.6-31.8-46-38.7-78.3c-4.6-21.5-4.4-21.6,9.4-7.3c13.5,14,26.9,33.6,31.7,46.6c3.5,9.5,5.3,30.4,3.3,38.3l-1.2,4.7
	L-25.5,446.7z"/>
</svg>
