<?xml version="1.0" encoding="utf-8"?>
<!-- Generator: Adobe Illustrator 21.1.0, SVG Export Plug-In . SVG Version: 6.00 Build 0)  -->
<svg version="1.1" id="Layer_1" xmlns="http://www.w3.org/2000/svg" xmlns:xlink="http://www.w3.org/1999/xlink" x="0px" y="0px"
	 viewBox="0 0 309.8 160" style="enable-background:new 0 0 309.8 160;" xml:space="preserve">
<style type="text/css">
	.arrowst{fill:#AF33BC;}
	.arrowst1{fill:#FFFFFF;}
</style>
<path class="arrowst" d="M222.4,1.2c-18.9,1.8-36,10.7-48.7,23.8h10c9.3-8,20.9-13.8,33.8-16c47.6-8.7,89.8,30.7,85.1,78.4
	c-3.1,34-30.7,61.6-64.4,64.9c-20.9,2-40-4.7-54.4-16.9h-10c16.2,16.7,39.6,26.2,65.1,23.8c37.1-3.8,67.1-33.8,70.9-70.9
	C314.4,38.1,272.4-3.7,222.4,1.2z"/>
<g transform="translate(0,-952.36218)">
	<path class="arrowst1" d="M254,1032.5c0-0.7-0.5-1.7-0.8-2.2l-24.7-26.3c-1.2-1.2-3-1.3-4.4-0.2c-1.2,1.1-1.2,3.2-0.2,4.4l19.9,21.1H3.8
		c-1.7,0-3.1,1.4-3.1,3.1s1.4,3.1,3.1,3.1h239.9l-19.9,21.1c-1.1,1.2-1,3.2,0.2,4.4c1.2,1.2,3.2,1.1,4.4-0.2l24.7-26.3
		C253.9,1033.9,254,1033.2,254,1032.5z"/>
</g>
</svg>
