<?xml version="1.0" encoding="utf-8"?>
<!-- Generator: Adobe Illustrator 21.0.0, SVG Export Plug-In . SVG Version: 6.00 Build 0)  -->
<svg version="1.1" id="Layer_1" xmlns="http://www.w3.org/2000/svg" xmlns:xlink="http://www.w3.org/1999/xlink" x="0px" y="0px"
	 viewBox="0 0 171.7 200" style="enable-background:new 0 0 171.7 200;" xml:space="preserve">
<style type="text/css">
	.st0{stroke:#000000;stroke-width:4;stroke-miterlimit:10;}
</style>
<path d="M110.1,2c23.6,2.2,44.9,13.3,60.7,29.7h-12.5c-11.6-10-26.1-17.2-42.1-20C56.9,0.9,4.2,49.9,10,109.5
	c3.9,42.4,38.2,76.8,80.4,80.9c26.1,2.5,49.9-5.8,67.9-21.1h12.5c-20.2,20.8-49.3,32.7-81.2,29.7c-46.3-4.7-83.7-42.1-88.4-88.4
	C-4.7,48,47.7-4.1,110.1,2z"/>
<path class="st0" d="M129.6,75.5h-65v44.2H99l20.6,16.6v-16.6h10V75.5z M126.3,116.4h-10v13l-16.1-13H67.9V78.8h58.4V116.4z"/>
</svg>
