<?xml version="1.0" encoding="utf-8"?>
<!-- Generator: Adobe Illustrator 21.0.0, SVG Export Plug-In . SVG Version: 6.00 Build 0)  -->
<svg version="1.1" id="Layer_1" xmlns="http://www.w3.org/2000/svg" xmlns:xlink="http://www.w3.org/1999/xlink" x="0px" y="0px"
	 viewBox="0 0 172.7 200" style="enable-background:new 0 0 172.7 200;" xml:space="preserve">
<path d="M59.8,91.4c0,6.1,2.4,11.7,6.6,16l31.8,31.8l0.3-0.3l31.4-31.4c4.2-4.3,6.6-10,6.6-16.1s-2.3-11.7-6.6-16.1
	c-4.2-4.2-9.9-6.6-16-6.6c-5.9,0-11.5,2.2-15.7,6.3c-4.1-4-9.8-6.3-15.7-6.3c-6.2,0-11.8,2.4-16.1,6.7
	C62.2,79.6,59.8,85.3,59.8,91.4z M124.7,80.5c2.8,2.8,4.4,6.6,4.4,10.7c0,4.1-1.5,7.9-4.4,10.7l-26.5,26.5l-26.5-26.5
	c-2.9-2.9-4.4-6.5-4.4-10.6c0-4.1,1.5-7.9,4.4-10.7c2.8-2.8,6.6-4.4,10.7-4.4c4.1,0,7.9,1.5,10.7,4.4l5,5l5-5.1
	c2.8-2.8,6.6-4.4,10.7-4.4C118,76.1,121.8,77.7,124.7,80.5z"/>
<path d="M110.4,1.5c23.6,2.2,44.9,13.3,60.7,29.7h-12.5c-11.6-10-26.1-17.2-42.1-20C57.1,0.4,4.5,49.4,10.3,109
	c3.9,42.4,38.2,76.8,80.4,80.9c26.1,2.5,49.9-5.8,67.9-21.1H171c-20.2,20.8-49.3,32.7-81.2,29.7c-46.3-4.7-83.7-42.1-88.4-88.4
	C-4.4,47.5,48-4.6,110.4,1.5z"/>
</svg>
