<?xml version="1.0" encoding="utf-8"?>
<!-- Generator: Adobe Illustrator 21.0.0, SVG Export Plug-In . SVG Version: 6.00 Build 0)  -->
<svg version="1.1" id="Слой_1" xmlns="http://www.w3.org/2000/svg" xmlns:xlink="http://www.w3.org/1999/xlink" x="0px" y="0px"
	 viewBox="0 0 100 100" style="enable-background:new 0 0 100 100;" xml:space="preserve">
<path d="M92.8,7.2c-4-4-9.3-6.2-15-6.2c-5.6,0-11,2.2-15,6.2L10.3,59.8c-0.5,0.5-0.9,1.2-1.1,1.9L1.1,94c-0.3,1.4,0.1,2.8,1.1,3.8
	C3,98.6,4,99,5,99c0.3,0,0.7,0,1-0.1l32.3-8.1c0.7-0.2,1.4-0.5,1.9-1.1l52.6-52.6C101.1,28.9,101.1,15.5,92.8,7.2z M15.3,70.5
	l14.2,14.2l-18.9,4.7L15.3,70.5z M37.4,81.2L18.9,62.6l42.8-42.8l6.4,6.4L34.5,59.8c-1.6,1.6-1.6,4.1,0,5.7c0.8,0.8,1.8,1.2,2.9,1.2
	s2.1-0.4,2.9-1.2L73.8,32l6.4,6.4L37.4,81.2z M87.1,31.5l-1.2,1.2L67.4,14.1l1.2-1.2c5-5,13.6-5,18.5,0C92.2,18,92.2,26.3,87.1,31.5
	z"/>
</svg>
